<?xml version="1.0" encoding="UTF-8"?>
<svg version="1.1" xmlns="http://www.w3.org/2000/svg" width="512" height="512">
<path d="M0 0 C10.56 0 21.12 0 32 0 C32 5.28 32 10.56 32 16 C42.56 16 53.12 16 64 16 C64 10.72 64 5.44 64 0 C132.64 0 201.28 0 272 0 C272 5.28 272 10.56 272 16 C282.56 16 293.12 16 304 16 C304 21.28 304 26.56 304 32 C314.56 32 325.12 32 336 32 C336 21.44 336 10.88 336 0 C372.96 0 409.92 0 448 0 C448 5.28 448 10.56 448 16 C453.28 16 458.56 16 464 16 C464 63.52 464 111.04 464 160 C458.72 160 453.44 160 448 160 C448 165.28 448 170.56 448 176 C453.28 176 458.56 176 464 176 C464 228.8 464 281.6 464 336 C458.72 336 453.44 336 448 336 C448 346.56 448 357.12 448 368 C453.28 368 458.56 368 464 368 C464 399.68 464 431.36 464 464 C458.72 464 453.44 464 448 464 C448 469.28 448 474.56 448 480 C321.28 480 194.56 480 64 480 C64 469.44 64 458.88 64 448 C58.72 448 53.44 448 48 448 C48 453.28 48 458.56 48 464 C42.72 464 37.44 464 32 464 C32 469.28 32 474.56 32 480 C21.44 480 10.88 480 0 480 C0 474.72 0 469.44 0 464 C-5.28 464 -10.56 464 -16 464 C-16 442.88 -16 421.76 -16 400 C-10.72 400 -5.44 400 0 400 C0 394.72 0 389.44 0 384 C-5.28 384 -10.56 384 -16 384 C-16 320.64 -16 257.28 -16 192 C-10.72 192 -5.44 192 0 192 C0 181.44 0 170.88 0 160 C-5.28 160 -10.56 160 -16 160 C-16 112.48 -16 64.96 -16 16 C-10.72 16 -5.44 16 0 16 C0 10.72 0 5.44 0 0 Z " fill="#3BF0AD" transform="translate(32,16)"/>
<path d="M0 0 C10.56 0 21.12 0 32 0 C32 5.28 32 10.56 32 16 C42.56 16 53.12 16 64 16 C64 10.72 64 5.44 64 0 C132.64 0 201.28 0 272 0 C272 5.28 272 10.56 272 16 C282.56 16 293.12 16 304 16 C304 21.28 304 26.56 304 32 C293.44 32 282.88 32 272 32 C272 37.28 272 42.56 272 48 C266.72 48 261.44 48 256 48 C256 53.28 256 58.56 256 64 C250.72 64 245.44 64 240 64 C240 69.28 240 74.56 240 80 C234.72 80 229.44 80 224 80 C224 85.28 224 90.56 224 96 C218.72 96 213.44 96 208 96 C208 101.28 208 106.56 208 112 C202.72 112 197.44 112 192 112 C192 117.28 192 122.56 192 128 C170.88 128 149.76 128 128 128 C128 133.28 128 138.56 128 144 C122.72 144 117.44 144 112 144 C112 149.28 112 154.56 112 160 C101.44 160 90.88 160 80 160 C80 165.28 80 170.56 80 176 C74.72 176 69.44 176 64 176 C64 181.28 64 186.56 64 192 C58.72 192 53.44 192 48 192 C48 202.56 48 213.12 48 224 C53.28 224 58.56 224 64 224 C64 234.56 64 245.12 64 256 C58.72 256 53.44 256 48 256 C48 261.28 48 266.56 48 272 C37.44 272 26.88 272 16 272 C16 324.8 16 377.6 16 432 C21.28 432 26.56 432 32 432 C32 437.28 32 442.56 32 448 C37.28 448 42.56 448 48 448 C48 453.28 48 458.56 48 464 C42.72 464 37.44 464 32 464 C32 469.28 32 474.56 32 480 C21.44 480 10.88 480 0 480 C0 474.72 0 469.44 0 464 C-5.28 464 -10.56 464 -16 464 C-16 442.88 -16 421.76 -16 400 C-10.72 400 -5.44 400 0 400 C0 394.72 0 389.44 0 384 C-5.28 384 -10.56 384 -16 384 C-16 320.64 -16 257.28 -16 192 C-10.72 192 -5.44 192 0 192 C0 181.44 0 170.88 0 160 C-5.28 160 -10.56 160 -16 160 C-16 112.48 -16 64.96 -16 16 C-10.72 16 -5.44 16 0 16 C0 10.72 0 5.44 0 0 Z " fill="#3BF0AD" transform="translate(32,16)"/>
<path d="M0 0 C36.96 0 73.92 0 112 0 C112 5.28 112 10.56 112 16 C117.28 16 122.56 16 128 16 C128 21.28 128 26.56 128 32 C133.28 32 138.56 32 144 32 C144 47.84 144 63.68 144 80 C138.72 80 133.44 80 128 80 C128 85.28 128 90.56 128 96 C117.44 96 106.88 96 96 96 C96 111.84 96 127.68 96 144 C106.56 144 117.12 144 128 144 C128 138.72 128 133.44 128 128 C133.28 128 138.56 128 144 128 C144 138.56 144 149.12 144 160 C138.72 160 133.44 160 128 160 C128 165.28 128 170.56 128 176 C122.72 176 117.44 176 112 176 C112 181.28 112 186.56 112 192 C127.84 192 143.68 192 160 192 C160 202.56 160 213.12 160 224 C149.44 224 138.88 224 128 224 C128 250.4 128 276.8 128 304 C117.44 304 106.88 304 96 304 C96 277.6 96 251.2 96 224 C85.44 224 74.88 224 64 224 C64 218.72 64 213.44 64 208 C53.44 208 42.88 208 32 208 C32 202.72 32 197.44 32 192 C16.16 192 0.32 192 -16 192 C-16 186.72 -16 181.44 -16 176 C-21.28 176 -26.56 176 -32 176 C-32 170.72 -32 165.44 -32 160 C-37.28 160 -42.56 160 -48 160 C-48 149.44 -48 138.88 -48 128 C-53.28 128 -58.56 128 -64 128 C-64 117.44 -64 106.88 -64 96 C-69.28 96 -74.56 96 -80 96 C-80 85.44 -80 74.88 -80 64 C-74.72 64 -69.44 64 -64 64 C-64 58.72 -64 53.44 -64 48 C-58.72 48 -53.44 48 -48 48 C-48 42.72 -48 37.44 -48 32 C-37.44 32 -26.88 32 -16 32 C-16 26.72 -16 21.44 -16 16 C-10.72 16 -5.44 16 0 16 C0 10.72 0 5.44 0 0 Z " fill="#383838" transform="translate(160,144)"/>
<path d="M0 0 C36.96 0 73.92 0 112 0 C112 5.28 112 10.56 112 16 C117.28 16 122.56 16 128 16 C128 21.28 128 26.56 128 32 C133.28 32 138.56 32 144 32 C144 74.24 144 116.48 144 160 C138.72 160 133.44 160 128 160 C128 170.56 128 181.12 128 192 C122.72 192 117.44 192 112 192 C112 197.28 112 202.56 112 208 C122.56 208 133.12 208 144 208 C144 223.84 144 239.68 144 256 C138.72 256 133.44 256 128 256 C128 261.28 128 266.56 128 272 C133.28 272 138.56 272 144 272 C144 287.84 144 303.68 144 320 C133.44 320 122.88 320 112 320 C112 309.44 112 298.88 112 288 C106.72 288 101.44 288 96 288 C96 293.28 96 298.56 96 304 C90.72 304 85.44 304 80 304 C80 309.28 80 314.56 80 320 C69.44 320 58.88 320 48 320 C48 309.44 48 298.88 48 288 C53.28 288 58.56 288 64 288 C64 282.72 64 277.44 64 272 C58.72 272 53.44 272 48 272 C48 256.16 48 240.32 48 224 C42.72 224 37.44 224 32 224 C32 218.72 32 213.44 32 208 C16.16 208 0.32 208 -16 208 C-16 202.72 -16 197.44 -16 192 C-10.72 192 -5.44 192 0 192 C0 186.72 0 181.44 0 176 C5.28 176 10.56 176 16 176 C16 165.44 16 154.88 16 144 C10.72 144 5.44 144 0 144 C0 149.28 0 154.56 0 160 C-10.56 160 -21.12 160 -32 160 C-32 144.16 -32 128.32 -32 112 C-21.44 112 -10.88 112 0 112 C0 106.72 0 101.44 0 96 C5.28 96 10.56 96 16 96 C16 80.16 16 64.32 16 48 C10.72 48 5.44 48 0 48 C0 42.72 0 37.44 0 32 C-5.28 32 -10.56 32 -16 32 C-16 26.72 -16 21.44 -16 16 C-10.72 16 -5.44 16 0 16 C0 10.72 0 5.44 0 0 Z " fill="#38A77E" transform="translate(288,128)"/>
<path d="M0 0 C36.96 0 73.92 0 112 0 C112 5.28 112 10.56 112 16 C117.28 16 122.56 16 128 16 C128 63.52 128 111.04 128 160 C122.72 160 117.44 160 112 160 C112 165.28 112 170.56 112 176 C117.28 176 122.56 176 128 176 C128 228.8 128 281.6 128 336 C122.72 336 117.44 336 112 336 C112 346.56 112 357.12 112 368 C117.28 368 122.56 368 128 368 C128 399.68 128 431.36 128 464 C122.72 464 117.44 464 112 464 C112 469.28 112 474.56 112 480 C-14.72 480 -141.44 480 -272 480 C-272 469.44 -272 458.88 -272 448 C-155.84 448 -39.68 448 80 448 C80 442.72 80 437.44 80 432 C85.28 432 90.56 432 96 432 C96 305.28 96 178.56 96 48 C90.72 48 85.44 48 80 48 C80 42.72 80 37.44 80 32 C53.6 32 27.2 32 0 32 C0 21.44 0 10.88 0 0 Z " fill="#18BB90" transform="translate(368,16)"/>
<path d="M0 0 C10.56 0 21.12 0 32 0 C32 5.28 32 10.56 32 16 C42.56 16 53.12 16 64 16 C64 10.72 64 5.44 64 0 C132.64 0 201.28 0 272 0 C272 5.28 272 10.56 272 16 C282.56 16 293.12 16 304 16 C304 21.28 304 26.56 304 32 C214.24 32 124.48 32 32 32 C32 37.28 32 42.56 32 48 C26.72 48 21.44 48 16 48 C16 174.72 16 301.44 16 432 C21.28 432 26.56 432 32 432 C32 437.28 32 442.56 32 448 C37.28 448 42.56 448 48 448 C48 453.28 48 458.56 48 464 C42.72 464 37.44 464 32 464 C32 469.28 32 474.56 32 480 C21.44 480 10.88 480 0 480 C0 474.72 0 469.44 0 464 C-5.28 464 -10.56 464 -16 464 C-16 442.88 -16 421.76 -16 400 C-10.72 400 -5.44 400 0 400 C0 394.72 0 389.44 0 384 C-5.28 384 -10.56 384 -16 384 C-16 320.64 -16 257.28 -16 192 C-10.72 192 -5.44 192 0 192 C0 181.44 0 170.88 0 160 C-5.28 160 -10.56 160 -16 160 C-16 112.48 -16 64.96 -16 16 C-10.72 16 -5.44 16 0 16 C0 10.72 0 5.44 0 0 Z " fill="#18BB90" transform="translate(32,16)"/>
<path d="M0 0 C36.96 0 73.92 0 112 0 C112 5.28 112 10.56 112 16 C117.28 16 122.56 16 128 16 C128 21.28 128 26.56 128 32 C133.28 32 138.56 32 144 32 C144 47.84 144 63.68 144 80 C138.72 80 133.44 80 128 80 C128 85.28 128 90.56 128 96 C117.44 96 106.88 96 96 96 C96 111.84 96 127.68 96 144 C106.56 144 117.12 144 128 144 C128 138.72 128 133.44 128 128 C133.28 128 138.56 128 144 128 C144 138.56 144 149.12 144 160 C138.72 160 133.44 160 128 160 C128 165.28 128 170.56 128 176 C122.72 176 117.44 176 112 176 C112 181.28 112 186.56 112 192 C127.84 192 143.68 192 160 192 C160 202.56 160 213.12 160 224 C149.44 224 138.88 224 128 224 C128 250.4 128 276.8 128 304 C117.44 304 106.88 304 96 304 C96 277.6 96 251.2 96 224 C85.44 224 74.88 224 64 224 C64 218.72 64 213.44 64 208 C69.28 208 74.56 208 80 208 C80 171.04 80 134.08 80 96 C74.72 96 69.44 96 64 96 C64 90.72 64 85.44 64 80 C58.72 80 53.44 80 48 80 C48 74.72 48 69.44 48 64 C42.72 64 37.44 64 32 64 C32 58.72 32 53.44 32 48 C26.72 48 21.44 48 16 48 C16 42.72 16 37.44 16 32 C5.44 32 -5.12 32 -16 32 C-16 26.72 -16 21.44 -16 16 C-10.72 16 -5.44 16 0 16 C0 10.72 0 5.44 0 0 Z " fill="#2E2E2E" transform="translate(160,144)"/>
<path d="M0 0 C10.56 0 21.12 0 32 0 C32 73.92 32 147.84 32 224 C26.72 224 21.44 224 16 224 C16 229.28 16 234.56 16 240 C-63.2 240 -142.4 240 -224 240 C-224 234.72 -224 229.44 -224 224 C-218.72 224 -213.44 224 -208 224 C-208 218.72 -208 213.44 -208 208 C-202.72 208 -197.44 208 -192 208 C-192 202.72 -192 197.44 -192 192 C-186.72 192 -181.44 192 -176 192 C-176 202.56 -176 213.12 -176 224 C-165.44 224 -154.88 224 -144 224 C-144 197.6 -144 171.2 -144 144 C-133.44 144 -122.88 144 -112 144 C-112 138.72 -112 133.44 -112 128 C-106.72 128 -101.44 128 -96 128 C-96 143.84 -96 159.68 -96 176 C-90.72 176 -85.44 176 -80 176 C-80 181.28 -80 186.56 -80 192 C-85.28 192 -90.56 192 -96 192 C-96 202.56 -96 213.12 -96 224 C-85.44 224 -74.88 224 -64 224 C-64 218.72 -64 213.44 -64 208 C-58.72 208 -53.44 208 -48 208 C-48 202.72 -48 197.44 -48 192 C-42.72 192 -37.44 192 -32 192 C-32 202.56 -32 213.12 -32 224 C-21.44 224 -10.88 224 0 224 C0 208.16 0 192.32 0 176 C-5.28 176 -10.56 176 -16 176 C-16 170.72 -16 165.44 -16 160 C-10.72 160 -5.44 160 0 160 C0 144.16 0 128.32 0 112 C-10.56 112 -21.12 112 -32 112 C-32 106.72 -32 101.44 -32 96 C-26.72 96 -21.44 96 -16 96 C-16 85.44 -16 74.88 -16 64 C-10.72 64 -5.44 64 0 64 C0 42.88 0 21.76 0 0 Z " fill="#3BF0AD" transform="translate(432,224)"/>
<path d="M0 0 C31.68 0 63.36 0 96 0 C96 5.28 96 10.56 96 16 C101.28 16 106.56 16 112 16 C112 31.84 112 47.68 112 64 C96.16 64 80.32 64 64 64 C64 69.28 64 74.56 64 80 C58.72 80 53.44 80 48 80 C48 85.28 48 90.56 48 96 C37.44 96 26.88 96 16 96 C16 101.28 16 106.56 16 112 C5.44 112 -5.12 112 -16 112 C-16 80.32 -16 48.64 -16 16 C-10.72 16 -5.44 16 0 16 C0 10.72 0 5.44 0 0 Z " fill="#097660" transform="translate(96,80)"/>
<path d="M0 0 C10.56 0 21.12 0 32 0 C32 15.84 32 31.68 32 48 C37.28 48 42.56 48 48 48 C48 42.72 48 37.44 48 32 C53.28 32 58.56 32 64 32 C64 21.44 64 10.88 64 0 C74.56 0 85.12 0 96 0 C96 15.84 96 31.68 96 48 C90.72 48 85.44 48 80 48 C80 53.28 80 58.56 80 64 C85.28 64 90.56 64 96 64 C96 79.84 96 95.68 96 112 C85.44 112 74.88 112 64 112 C64 101.44 64 90.88 64 80 C58.72 80 53.44 80 48 80 C48 85.28 48 90.56 48 96 C42.72 96 37.44 96 32 96 C32 101.28 32 106.56 32 112 C21.44 112 10.88 112 0 112 C0 101.44 0 90.88 0 80 C5.28 80 10.56 80 16 80 C16 74.72 16 69.44 16 64 C10.72 64 5.44 64 0 64 C0 42.88 0 21.76 0 0 Z " fill="#96232C" transform="translate(336,336)"/>
<path d="M0 0 C126.72 0 253.44 0 384 0 C384 5.28 384 10.56 384 16 C257.28 16 130.56 16 0 16 C0 10.72 0 5.44 0 0 Z " fill="#139674" transform="translate(96,480)"/>
<path d="M0 0 C5.28 0 10.56 0 16 0 C16 15.84 16 31.68 16 48 C10.72 48 5.44 48 0 48 C0 58.56 0 69.12 0 80 C-5.28 80 -10.56 80 -16 80 C-16 95.84 -16 111.68 -16 128 C-21.28 128 -26.56 128 -32 128 C-32 133.28 -32 138.56 -32 144 C-37.28 144 -42.56 144 -48 144 C-48 128.16 -48 112.32 -48 96 C-58.56 96 -69.12 96 -80 96 C-80 90.72 -80 85.44 -80 80 C-74.72 80 -69.44 80 -64 80 C-64 74.72 -64 69.44 -64 64 C-58.72 64 -53.44 64 -48 64 C-48 58.72 -48 53.44 -48 48 C-42.72 48 -37.44 48 -32 48 C-32 37.44 -32 26.88 -32 16 C-21.44 16 -10.88 16 0 16 C0 10.72 0 5.44 0 0 Z " fill="#2FA27E" transform="translate(416,240)"/>
<path d="M0 0 C26.4 0 52.8 0 80 0 C80 10.56 80 21.12 80 32 C69.44 32 58.88 32 48 32 C48 58.4 48 84.8 48 112 C37.44 112 26.88 112 16 112 C16 85.6 16 59.2 16 32 C5.44 32 -5.12 32 -16 32 C-16 26.72 -16 21.44 -16 16 C-10.72 16 -5.44 16 0 16 C0 10.72 0 5.44 0 0 Z " fill="#96232C" transform="translate(240,336)"/>
<path d="M0 0 C31.68 0 63.36 0 96 0 C96 5.28 96 10.56 96 16 C90.72 16 85.44 16 80 16 C80 21.28 80 26.56 80 32 C64.16 32 48.32 32 32 32 C32 37.28 32 42.56 32 48 C26.72 48 21.44 48 16 48 C16 63.84 16 79.68 16 96 C5.44 96 -5.12 96 -16 96 C-16 69.6 -16 43.2 -16 16 C-10.72 16 -5.44 16 0 16 C0 10.72 0 5.44 0 0 Z " fill="#24E3B0" transform="translate(64,48)"/>
<path d="M0 0 C15.84 0 31.68 0 48 0 C48 21.12 48 42.24 48 64 C42.72 64 37.44 64 32 64 C32 69.28 32 74.56 32 80 C0.32 80 -31.36 80 -64 80 C-64 74.72 -64 69.44 -64 64 C-58.72 64 -53.44 64 -48 64 C-48 58.72 -48 53.44 -48 48 C-42.72 48 -37.44 48 -32 48 C-32 42.72 -32 37.44 -32 32 C-26.72 32 -21.44 32 -16 32 C-16 42.56 -16 53.12 -16 64 C-5.44 64 5.12 64 16 64 C16 48.16 16 32.32 16 16 C10.72 16 5.44 16 0 16 C0 10.72 0 5.44 0 0 Z " fill="#24E3B0" transform="translate(416,384)"/>
<path d="M0 0 C5.28 0 10.56 0 16 0 C16 15.84 16 31.68 16 48 C10.72 48 5.44 48 0 48 C0 58.56 0 69.12 0 80 C-5.28 80 -10.56 80 -16 80 C-16 85.28 -16 90.56 -16 96 C-21.28 96 -26.56 96 -32 96 C-32 101.28 -32 106.56 -32 112 C-37.28 112 -42.56 112 -48 112 C-48 122.56 -48 133.12 -48 144 C-53.28 144 -58.56 144 -64 144 C-64 138.72 -64 133.44 -64 128 C-69.28 128 -74.56 128 -80 128 C-80 122.72 -80 117.44 -80 112 C-74.72 112 -69.44 112 -64 112 C-64 106.72 -64 101.44 -64 96 C-58.72 96 -53.44 96 -48 96 C-48 90.72 -48 85.44 -48 80 C-42.72 80 -37.44 80 -32 80 C-32 58.88 -32 37.76 -32 16 C-21.44 16 -10.88 16 0 16 C0 10.72 0 5.44 0 0 Z " fill="#67A991" transform="translate(384,208)"/>
<path d="M0 0 C10.56 0 21.12 0 32 0 C32 15.84 32 31.68 32 48 C26.72 48 21.44 48 16 48 C16 53.28 16 58.56 16 64 C21.28 64 26.56 64 32 64 C32 79.84 32 95.68 32 112 C21.44 112 10.88 112 0 112 C0 101.44 0 90.88 0 80 C-5.28 80 -10.56 80 -16 80 C-16 74.72 -16 69.44 -16 64 C-10.72 64 -5.44 64 0 64 C0 42.88 0 21.76 0 0 Z " fill="#821E27" transform="translate(400,336)"/>
<path d="M0 0 C5.28 0 10.56 0 16 0 C16 5.28 16 10.56 16 16 C31.84 16 47.68 16 64 16 C64 31.84 64 47.68 64 64 C48.16 64 32.32 64 16 64 C16 58.72 16 53.44 16 48 C10.72 48 5.44 48 0 48 C0 42.72 0 37.44 0 32 C-5.28 32 -10.56 32 -16 32 C-16 26.72 -16 21.44 -16 16 C-10.72 16 -5.44 16 0 16 C0 10.72 0 5.44 0 0 Z " fill="#FFFFFF" transform="translate(160,240)"/>
<path d="M0 0 C68.64 0 137.28 0 208 0 C208 5.28 208 10.56 208 16 C139.36 16 70.72 16 0 16 C0 10.72 0 5.44 0 0 Z " fill="#139674" transform="translate(96,16)"/>
<path d="M0 0 C5.28 0 10.56 0 16 0 C16 5.28 16 10.56 16 16 C21.28 16 26.56 16 32 16 C32 31.84 32 47.68 32 64 C26.72 64 21.44 64 16 64 C16 58.72 16 53.44 16 48 C10.72 48 5.44 48 0 48 C0 53.28 0 58.56 0 64 C-10.56 64 -21.12 64 -32 64 C-32 48.16 -32 32.32 -32 16 C-21.44 16 -10.88 16 0 16 C0 10.72 0 5.44 0 0 Z " fill="#CFCFCF" transform="translate(288,224)"/>
<path d="M0 0 C5.28 0 10.56 0 16 0 C16 63.36 16 126.72 16 192 C10.72 192 5.44 192 0 192 C0 128.64 0 65.28 0 0 Z " fill="#139674" transform="translate(16,208)"/>
<path d="M0 0 C15.84 0 31.68 0 48 0 C48 5.28 48 10.56 48 16 C42.72 16 37.44 16 32 16 C32 21.28 32 26.56 32 32 C26.72 32 21.44 32 16 32 C16 37.28 16 42.56 16 48 C10.72 48 5.44 48 0 48 C0 53.28 0 58.56 0 64 C-5.28 64 -10.56 64 -16 64 C-16 69.28 -16 74.56 -16 80 C-21.28 80 -26.56 80 -32 80 C-32 64.16 -32 48.32 -32 32 C-26.72 32 -21.44 32 -16 32 C-16 26.72 -16 21.44 -16 16 C-10.72 16 -5.44 16 0 16 C0 10.72 0 5.44 0 0 Z " fill="#ABCEC5" transform="translate(128,96)"/>
<path d="M0 0 C10.56 0 21.12 0 32 0 C32 5.28 32 10.56 32 16 C26.72 16 21.44 16 16 16 C16 21.28 16 26.56 16 32 C10.72 32 5.44 32 0 32 C0 37.28 0 42.56 0 48 C-5.28 48 -10.56 48 -16 48 C-16 53.28 -16 58.56 -16 64 C-21.28 64 -26.56 64 -32 64 C-32 69.28 -32 74.56 -32 80 C-37.28 80 -42.56 80 -48 80 C-48 85.28 -48 90.56 -48 96 C-58.56 96 -69.12 96 -80 96 C-80 90.72 -80 85.44 -80 80 C-74.72 80 -69.44 80 -64 80 C-64 74.72 -64 69.44 -64 64 C-58.72 64 -53.44 64 -48 64 C-48 58.72 -48 53.44 -48 48 C-42.72 48 -37.44 48 -32 48 C-32 42.72 -32 37.44 -32 32 C-26.72 32 -21.44 32 -16 32 C-16 26.72 -16 21.44 -16 16 C-10.72 16 -5.44 16 0 16 C0 10.72 0 5.44 0 0 Z " fill="#89F6CF" transform="translate(304,48)"/>
<path d="M0 0 C10.56 0 21.12 0 32 0 C32 5.28 32 10.56 32 16 C26.72 16 21.44 16 16 16 C16 21.28 16 26.56 16 32 C10.72 32 5.44 32 0 32 C0 37.28 0 42.56 0 48 C-5.28 48 -10.56 48 -16 48 C-16 53.28 -16 58.56 -16 64 C-21.28 64 -26.56 64 -32 64 C-32 69.28 -32 74.56 -32 80 C-37.28 80 -42.56 80 -48 80 C-48 85.28 -48 90.56 -48 96 C-53.28 96 -58.56 96 -64 96 C-64 85.44 -64 74.88 -64 64 C-58.72 64 -53.44 64 -48 64 C-48 58.72 -48 53.44 -48 48 C-42.72 48 -37.44 48 -32 48 C-32 42.72 -32 37.44 -32 32 C-26.72 32 -21.44 32 -16 32 C-16 26.72 -16 21.44 -16 16 C-10.72 16 -5.44 16 0 16 C0 10.72 0 5.44 0 0 Z " fill="#24E3B0" transform="translate(272,48)"/>
<path d="M0 0 C5.28 0 10.56 0 16 0 C16 52.8 16 105.6 16 160 C10.72 160 5.44 160 0 160 C0 107.2 0 54.4 0 0 Z " fill="#139674" transform="translate(480,192)"/>
<path d="M0 0 C15.84 0 31.68 0 48 0 C48 5.28 48 10.56 48 16 C42.72 16 37.44 16 32 16 C32 21.28 32 26.56 32 32 C26.72 32 21.44 32 16 32 C16 47.84 16 63.68 16 80 C21.28 80 26.56 80 32 80 C32 85.28 32 90.56 32 96 C21.44 96 10.88 96 0 96 C0 64.32 0 32.64 0 0 Z " fill="#0DAA8C" transform="translate(80,96)"/>
<path d="M0 0 C5.28 0 10.56 0 16 0 C16 10.56 16 21.12 16 32 C10.72 32 5.44 32 0 32 C0 37.28 0 42.56 0 48 C-5.28 48 -10.56 48 -16 48 C-16 53.28 -16 58.56 -16 64 C-21.28 64 -26.56 64 -32 64 C-32 69.28 -32 74.56 -32 80 C-42.56 80 -53.12 80 -64 80 C-64 74.72 -64 69.44 -64 64 C-58.72 64 -53.44 64 -48 64 C-48 58.72 -48 53.44 -48 48 C-42.72 48 -37.44 48 -32 48 C-32 42.72 -32 37.44 -32 32 C-26.72 32 -21.44 32 -16 32 C-16 26.72 -16 21.44 -16 16 C-10.72 16 -5.44 16 0 16 C0 10.72 0 5.44 0 0 Z " fill="#89F6CF" transform="translate(240,384)"/>
<path d="M0 0 C10.56 0 21.12 0 32 0 C32 10.56 32 21.12 32 32 C21.44 32 10.88 32 0 32 C0 53.12 0 74.24 0 96 C-5.28 96 -10.56 96 -16 96 C-16 69.6 -16 43.2 -16 16 C-10.72 16 -5.44 16 0 16 C0 10.72 0 5.44 0 0 Z " fill="#821E27" transform="translate(288,336)"/>
<path d="M0 0 C5.28 0 10.56 0 16 0 C16 15.84 16 31.68 16 48 C10.72 48 5.44 48 0 48 C0 53.28 0 58.56 0 64 C-10.56 64 -21.12 64 -32 64 C-32 48.16 -32 32.32 -32 16 C-21.44 16 -10.88 16 0 16 C0 10.72 0 5.44 0 0 Z " fill="#86F5CC" transform="translate(384,208)"/>
<path d="M0 0 C5.28 0 10.56 0 16 0 C16 47.52 16 95.04 16 144 C10.72 144 5.44 144 0 144 C0 96.48 0 48.96 0 0 Z " fill="#139674" transform="translate(480,32)"/>
<path d="M0 0 C5.28 0 10.56 0 16 0 C16 47.52 16 95.04 16 144 C10.72 144 5.44 144 0 144 C0 96.48 0 48.96 0 0 Z " fill="#139674" transform="translate(16,32)"/>
<path d="M0 0 C10.56 0 21.12 0 32 0 C32 5.28 32 10.56 32 16 C26.72 16 21.44 16 16 16 C16 21.28 16 26.56 16 32 C10.72 32 5.44 32 0 32 C0 37.28 0 42.56 0 48 C-5.28 48 -10.56 48 -16 48 C-16 53.28 -16 58.56 -16 64 C-21.28 64 -26.56 64 -32 64 C-32 48.16 -32 32.32 -32 16 C-21.44 16 -10.88 16 0 16 C0 10.72 0 5.44 0 0 Z " fill="#89F6CF" transform="translate(80,272)"/>
<path d="M0 0 C5.28 0 10.56 0 16 0 C16 10.56 16 21.12 16 32 C21.28 32 26.56 32 32 32 C32 37.28 32 42.56 32 48 C42.56 48 53.12 48 64 48 C64 53.28 64 58.56 64 64 C48.16 64 32.32 64 16 64 C16 58.72 16 53.44 16 48 C10.72 48 5.44 48 0 48 C0 32.16 0 16.32 0 0 Z " fill="#24E3B0" transform="translate(48,400)"/>
<path d="M0 0 C36.96 0 73.92 0 112 0 C112 5.28 112 10.56 112 16 C75.04 16 38.08 16 0 16 C0 10.72 0 5.44 0 0 Z " fill="#35A47B" transform="translate(288,128)"/>
<path d="M0 0 C15.84 0 31.68 0 48 0 C48 5.28 48 10.56 48 16 C53.28 16 58.56 16 64 16 C64 31.84 64 47.68 64 64 C58.72 64 53.44 64 48 64 C48 53.44 48 42.88 48 32 C42.72 32 37.44 32 32 32 C32 26.72 32 21.44 32 16 C21.44 16 10.88 16 0 16 C0 10.72 0 5.44 0 0 Z " fill="#24E3B0" transform="translate(400,48)"/>
<path d="M0 0 C36.96 0 73.92 0 112 0 C112 5.28 112 10.56 112 16 C75.04 16 38.08 16 0 16 C0 10.72 0 5.44 0 0 Z " fill="#139674" transform="translate(368,16)"/>
<path d="M0 0 C5.28 0 10.56 0 16 0 C16 31.68 16 63.36 16 96 C10.72 96 5.44 96 0 96 C0 64.32 0 32.64 0 0 Z " fill="#139674" transform="translate(480,384)"/>
<path d="M0 0 C10.56 0 21.12 0 32 0 C32 15.84 32 31.68 32 48 C21.44 48 10.88 48 0 48 C0 32.16 0 16.32 0 0 Z " fill="#E6E6E6" transform="translate(192,256)"/>
<path d="M0 0 C5.28 0 10.56 0 16 0 C16 10.56 16 21.12 16 32 C10.72 32 5.44 32 0 32 C0 37.28 0 42.56 0 48 C-10.56 48 -21.12 48 -32 48 C-32 37.44 -32 26.88 -32 16 C-21.44 16 -10.88 16 0 16 C0 10.72 0 5.44 0 0 Z " fill="#24E3B0" transform="translate(80,240)"/>
<path d="M0 0 C31.68 0 63.36 0 96 0 C96 5.28 96 10.56 96 16 C64.32 16 32.64 16 0 16 C0 10.72 0 5.44 0 0 Z " fill="#0DAA8C" transform="translate(96,80)"/>
<path d="M0 0 C5.28 0 10.56 0 16 0 C16 10.56 16 21.12 16 32 C10.72 32 5.44 32 0 32 C0 37.28 0 42.56 0 48 C-10.56 48 -21.12 48 -32 48 C-32 42.72 -32 37.44 -32 32 C-26.72 32 -21.44 32 -16 32 C-16 26.72 -16 21.44 -16 16 C-10.72 16 -5.44 16 0 16 C0 10.72 0 5.44 0 0 Z " fill="#24E3B0" transform="translate(240,416)"/>
<path d="M0 0 C10.56 0 21.12 0 32 0 C32 10.56 32 21.12 32 32 C26.72 32 21.44 32 16 32 C16 37.28 16 42.56 16 48 C10.72 48 5.44 48 0 48 C0 32.16 0 16.32 0 0 Z " fill="#3BF0AD" transform="translate(368,336)"/>
<path d="M0 0 C5.28 0 10.56 0 16 0 C16 21.12 16 42.24 16 64 C10.72 64 5.44 64 0 64 C0 42.88 0 21.76 0 0 Z " fill="#139674" transform="translate(16,416)"/>
<path d="M0 0 C10.56 0 21.12 0 32 0 C32 10.56 32 21.12 32 32 C21.44 32 10.88 32 0 32 C0 21.44 0 10.88 0 0 Z " fill="#24E3B0" transform="translate(432,224)"/>
<path d="M0 0 C5.28 0 10.56 0 16 0 C16 10.56 16 21.12 16 32 C10.72 32 5.44 32 0 32 C0 37.28 0 42.56 0 48 C-5.28 48 -10.56 48 -16 48 C-16 37.44 -16 26.88 -16 16 C-10.72 16 -5.44 16 0 16 C0 10.72 0 5.44 0 0 Z " fill="#67A991" transform="translate(416,208)"/>
<path d="M0 0 C10.56 0 21.12 0 32 0 C32 10.56 32 21.12 32 32 C21.44 32 10.88 32 0 32 C0 21.44 0 10.88 0 0 Z " fill="#86F5CC" transform="translate(368,160)"/>
<path d="M0 0 C10.56 0 21.12 0 32 0 C32 5.28 32 10.56 32 16 C26.72 16 21.44 16 16 16 C16 21.28 16 26.56 16 32 C10.72 32 5.44 32 0 32 C0 21.44 0 10.88 0 0 Z " fill="#24E3B0" transform="translate(288,368)"/>
<path d="M0 0 C5.28 0 10.56 0 16 0 C16 15.84 16 31.68 16 48 C10.72 48 5.44 48 0 48 C0 32.16 0 16.32 0 0 Z " fill="#7CEBC2" transform="translate(304,240)"/>
<path d="M0 0 C5.28 0 10.56 0 16 0 C16 15.84 16 31.68 16 48 C10.72 48 5.44 48 0 48 C0 32.16 0 16.32 0 0 Z " fill="#0DAA8C" transform="translate(192,96)"/>
<path d="M0 0 C10.56 0 21.12 0 32 0 C32 5.28 32 10.56 32 16 C26.72 16 21.44 16 16 16 C16 21.28 16 26.56 16 32 C10.72 32 5.44 32 0 32 C0 21.44 0 10.88 0 0 Z " fill="#821E27" transform="translate(96,96)"/>
<path d="M0 0 C10.56 0 21.12 0 32 0 C32 5.28 32 10.56 32 16 C21.44 16 10.88 16 0 16 C0 10.72 0 5.44 0 0 Z " fill="#139674" transform="translate(32,480)"/>
<path d="M0 0 C5.28 0 10.56 0 16 0 C16 10.56 16 21.12 16 32 C10.72 32 5.44 32 0 32 C0 21.44 0 10.88 0 0 Z " fill="#96232C" transform="translate(400,336)"/>
<path d="M0 0 C5.28 0 10.56 0 16 0 C16 10.56 16 21.12 16 32 C10.72 32 5.44 32 0 32 C0 21.44 0 10.88 0 0 Z " fill="#303030" transform="translate(112,272)"/>
<path d="M0 0 C5.28 0 10.56 0 16 0 C16 10.56 16 21.12 16 32 C10.72 32 5.44 32 0 32 C0 21.44 0 10.88 0 0 Z " fill="#279C7C" transform="translate(416,240)"/>
<path d="M0 0 C5.28 0 10.56 0 16 0 C16 10.56 16 21.12 16 32 C10.72 32 5.44 32 0 32 C0 21.44 0 10.88 0 0 Z " fill="#2E2E2E" transform="translate(96,240)"/>
<path d="M0 0 C10.56 0 21.12 0 32 0 C32 5.28 32 10.56 32 16 C21.44 16 10.88 16 0 16 C0 10.72 0 5.44 0 0 Z " fill="#89F6CF" transform="translate(432,208)"/>
<path d="M0 0 C5.28 0 10.56 0 16 0 C16 10.56 16 21.12 16 32 C10.72 32 5.44 32 0 32 C0 21.44 0 10.88 0 0 Z " fill="#2E2E2E" transform="translate(80,208)"/>
<path d="M0 0 C10.56 0 21.12 0 32 0 C32 5.28 32 10.56 32 16 C21.44 16 10.88 16 0 16 C0 10.72 0 5.44 0 0 Z " fill="#2E2E2E" transform="translate(112,176)"/>
<path d="M0 0 C10.56 0 21.12 0 32 0 C32 5.28 32 10.56 32 16 C21.44 16 10.88 16 0 16 C0 10.72 0 5.44 0 0 Z " fill="#139674" transform="translate(32,16)"/>
<path d="M0 0 C5.28 0 10.56 0 16 0 C16 5.28 16 10.56 16 16 C10.72 16 5.44 16 0 16 C0 10.72 0 5.44 0 0 Z " fill="#24E3B0" transform="translate(320,352)"/>
<path d="M0 0 C5.28 0 10.56 0 16 0 C16 5.28 16 10.56 16 16 C10.72 16 5.44 16 0 16 C0 10.72 0 5.44 0 0 Z " fill="#6C262B" transform="translate(336,336)"/>
<path d="M0 0 C5.28 0 10.56 0 16 0 C16 5.28 16 10.56 16 16 C10.72 16 5.44 16 0 16 C0 10.72 0 5.44 0 0 Z " fill="#279C7C" transform="translate(320,336)"/>
<path d="M0 0 C5.28 0 10.56 0 16 0 C16 5.28 16 10.56 16 16 C10.72 16 5.44 16 0 16 C0 10.72 0 5.44 0 0 Z " fill="#6AAC94" transform="translate(384,256)"/>
<path d="M0 0 C5.28 0 10.56 0 16 0 C16 5.28 16 10.56 16 16 C10.72 16 5.44 16 0 16 C0 10.72 0 5.44 0 0 Z " fill="#B6F8E0" transform="translate(368,256)"/>
<path d="M0 0 C5.28 0 10.56 0 16 0 C16 5.28 16 10.56 16 16 C10.72 16 5.44 16 0 16 C0 10.72 0 5.44 0 0 Z " fill="#B6F8E0" transform="translate(384,240)"/>
<path d="M0 0 C5.28 0 10.56 0 16 0 C16 5.28 16 10.56 16 16 C10.72 16 5.44 16 0 16 C0 10.72 0 5.44 0 0 Z " fill="#2E2E2E" transform="translate(96,192)"/>
<path d="M0 0 C5.28 0 10.56 0 16 0 C16 5.28 16 10.56 16 16 C10.72 16 5.44 16 0 16 C0 10.72 0 5.44 0 0 Z " fill="#097660" transform="translate(96,176)"/>
<path d="M0 0 C5.28 0 10.56 0 16 0 C16 5.28 16 10.56 16 16 C10.72 16 5.44 16 0 16 C0 10.72 0 5.44 0 0 Z " fill="#96232C" transform="translate(96,96)"/>
</svg>
